# xmcd CD database file
#
# Track frame offsets:
#	150
#	24470
#	41905
#	62472
#	83215
#	103247
#	123175
#	138477
#	155657
#	176000
#
# Disc length: 2522 seconds
#
# Revision: 0
# Processed by: cddbd v1.5.1PL0 Copyright (c) Steve Scherf et al.
# Submitted via: CDex 1.51
#
DISCID=8509d80a
DTITLE=西野妙子 - 発売予定日
DYEAR=1992
DGENRE=JPop
TTITLE0=悲しい女になっちゃうよ(Album Mix Version)
TTITLE1=まっすぐ
TTITLE2=星空のパズラー
TTITLE3=発売予定
TTITLE4=だったら友情でいいのね
TTITLE5=雨の木
TTITLE6=TシャツでCHRISTMAS
TTITLE7=Promise〜放課後の花嫁〜(Album Mix Version)
TTITLE8=黄昏ダンス
TTITLE9=優しい嘘も抱きしめて
EXTD=YEAR: 1992
EXTT0=
EXTT1=
EXTT2=
EXTT3=
EXTT4=
EXTT5=
EXTT6=
EXTT7=
EXTT8=
EXTT9=
PLAYORDER=
